<mxfile host="Electron" modified="2023-05-26T01:18:13.503Z" agent="Mozilla/5.0 (Macintosh; Intel Mac OS X 10_15_7) AppleWebKit/537.36 (KHTML, like Gecko) draw.io/21.2.8 Chrome/112.0.5615.165 Electron/24.2.0 Safari/537.36" etag="po-TWUCArw6XG0Pv73Td" version="21.2.8" type="device">
  <diagram id="C5RBs43oDa-KdzZeNtuy" name="Page-1">
    <mxGraphModel dx="1553" dy="1616" grid="1" gridSize="10" guides="1" tooltips="1" connect="1" arrows="1" fold="1" page="1" pageScale="1" pageWidth="827" pageHeight="1169" math="0" shadow="0">
      <root>
        <mxCell id="WIyWlLk6GJQsqaUBKTNV-0" />
        <mxCell id="WIyWlLk6GJQsqaUBKTNV-1" parent="WIyWlLk6GJQsqaUBKTNV-0" />
        <mxCell id="3PX6k5ORZ-lnbq7YZ1M3-3" value="" style="edgeStyle=orthogonalEdgeStyle;rounded=0;orthogonalLoop=1;jettySize=auto;html=1;" parent="WIyWlLk6GJQsqaUBKTNV-1" source="3PX6k5ORZ-lnbq7YZ1M3-1" target="3PX6k5ORZ-lnbq7YZ1M3-2" edge="1">
          <mxGeometry relative="1" as="geometry" />
        </mxCell>
        <mxCell id="3PX6k5ORZ-lnbq7YZ1M3-1" value="solution(vection&amp;lt;string&amp;gt; park, vector&amp;lt;string&amp;gt; routes)" style="ellipse;whiteSpace=wrap;html=1;" parent="WIyWlLk6GJQsqaUBKTNV-1" vertex="1">
          <mxGeometry x="234" y="20" width="360" height="80" as="geometry" />
        </mxCell>
        <mxCell id="3PX6k5ORZ-lnbq7YZ1M3-26" value="" style="edgeStyle=orthogonalEdgeStyle;rounded=0;orthogonalLoop=1;jettySize=auto;html=1;" parent="WIyWlLk6GJQsqaUBKTNV-1" source="3PX6k5ORZ-lnbq7YZ1M3-2" target="3PX6k5ORZ-lnbq7YZ1M3-25" edge="1">
          <mxGeometry relative="1" as="geometry" />
        </mxCell>
        <mxCell id="3PX6k5ORZ-lnbq7YZ1M3-2" value="int a, b // 좌표 값&lt;br&gt;int aMax, bMax // 좌표 최대 값&lt;br&gt;bool stopPoint = false // 초기 좌표값 설정을 위한 변수" style="rounded=0;whiteSpace=wrap;html=1;" parent="WIyWlLk6GJQsqaUBKTNV-1" vertex="1">
          <mxGeometry x="269" y="130" width="290" height="60" as="geometry" />
        </mxCell>
        <mxCell id="3PX6k5ORZ-lnbq7YZ1M3-28" value="" style="edgeStyle=orthogonalEdgeStyle;rounded=0;orthogonalLoop=1;jettySize=auto;html=1;" parent="WIyWlLk6GJQsqaUBKTNV-1" source="3PX6k5ORZ-lnbq7YZ1M3-25" target="3PX6k5ORZ-lnbq7YZ1M3-27" edge="1">
          <mxGeometry relative="1" as="geometry" />
        </mxCell>
        <mxCell id="3PX6k5ORZ-lnbq7YZ1M3-25" value="이중 for문 // 좌표 초기 값 설정&lt;br&gt;park[i][j] == &#39;S&#39;일 경우&lt;br&gt;a = i, b = j" style="whiteSpace=wrap;html=1;rounded=0;" parent="WIyWlLk6GJQsqaUBKTNV-1" vertex="1">
          <mxGeometry x="289" y="230" width="250" height="60" as="geometry" />
        </mxCell>
        <mxCell id="3PX6k5ORZ-lnbq7YZ1M3-30" value="" style="edgeStyle=orthogonalEdgeStyle;rounded=0;orthogonalLoop=1;jettySize=auto;html=1;" parent="WIyWlLk6GJQsqaUBKTNV-1" source="3PX6k5ORZ-lnbq7YZ1M3-27" target="3PX6k5ORZ-lnbq7YZ1M3-29" edge="1">
          <mxGeometry relative="1" as="geometry" />
        </mxCell>
        <mxCell id="3PX6k5ORZ-lnbq7YZ1M3-27" value="int move // 좌표 이동 값&lt;br&gt;bool alloc // true일 경우 이동 가능, false일 경우 이동 불가능" style="whiteSpace=wrap;html=1;rounded=0;" parent="WIyWlLk6GJQsqaUBKTNV-1" vertex="1">
          <mxGeometry x="262" y="330" width="304" height="60" as="geometry" />
        </mxCell>
        <mxCell id="3PX6k5ORZ-lnbq7YZ1M3-29" value="for(int i = 0; i &amp;lt; routuer.size(); i++)&lt;br&gt;alloc = true; // 초기화&lt;br&gt;move = routes[i][2] // 초기화" style="whiteSpace=wrap;html=1;rounded=0;" parent="WIyWlLk6GJQsqaUBKTNV-1" vertex="1">
          <mxGeometry x="311" y="420" width="206" height="60" as="geometry" />
        </mxCell>
        <mxCell id="3PX6k5ORZ-lnbq7YZ1M3-50" value="" style="edgeStyle=orthogonalEdgeStyle;rounded=0;orthogonalLoop=1;jettySize=auto;html=1;" parent="WIyWlLk6GJQsqaUBKTNV-1" source="3PX6k5ORZ-lnbq7YZ1M3-31" target="3PX6k5ORZ-lnbq7YZ1M3-46" edge="1">
          <mxGeometry relative="1" as="geometry" />
        </mxCell>
        <mxCell id="3PX6k5ORZ-lnbq7YZ1M3-58" value="" style="edgeStyle=orthogonalEdgeStyle;rounded=0;orthogonalLoop=1;jettySize=auto;html=1;" parent="WIyWlLk6GJQsqaUBKTNV-1" source="3PX6k5ORZ-lnbq7YZ1M3-31" target="3PX6k5ORZ-lnbq7YZ1M3-33" edge="1">
          <mxGeometry relative="1" as="geometry" />
        </mxCell>
        <mxCell id="3PX6k5ORZ-lnbq7YZ1M3-31" value="if routes[i][0] == &#39;E&#39;" style="rhombus;whiteSpace=wrap;html=1;" parent="WIyWlLk6GJQsqaUBKTNV-1" vertex="1">
          <mxGeometry x="34" y="514.5" width="160" height="55" as="geometry" />
        </mxCell>
        <mxCell id="3PX6k5ORZ-lnbq7YZ1M3-51" value="" style="edgeStyle=orthogonalEdgeStyle;rounded=0;orthogonalLoop=1;jettySize=auto;html=1;" parent="WIyWlLk6GJQsqaUBKTNV-1" source="3PX6k5ORZ-lnbq7YZ1M3-33" target="3PX6k5ORZ-lnbq7YZ1M3-47" edge="1">
          <mxGeometry relative="1" as="geometry" />
        </mxCell>
        <mxCell id="3PX6k5ORZ-lnbq7YZ1M3-59" value="" style="edgeStyle=orthogonalEdgeStyle;rounded=0;orthogonalLoop=1;jettySize=auto;html=1;" parent="WIyWlLk6GJQsqaUBKTNV-1" source="3PX6k5ORZ-lnbq7YZ1M3-33" target="3PX6k5ORZ-lnbq7YZ1M3-34" edge="1">
          <mxGeometry relative="1" as="geometry" />
        </mxCell>
        <mxCell id="3PX6k5ORZ-lnbq7YZ1M3-33" value="if routes[i][0] == &#39;S&#39;" style="rhombus;whiteSpace=wrap;html=1;" parent="WIyWlLk6GJQsqaUBKTNV-1" vertex="1">
          <mxGeometry x="234" y="514.5" width="160" height="55" as="geometry" />
        </mxCell>
        <mxCell id="3PX6k5ORZ-lnbq7YZ1M3-60" value="" style="edgeStyle=orthogonalEdgeStyle;rounded=0;orthogonalLoop=1;jettySize=auto;html=1;entryX=0.5;entryY=0;entryDx=0;entryDy=0;" parent="WIyWlLk6GJQsqaUBKTNV-1" source="3PX6k5ORZ-lnbq7YZ1M3-34" target="3PX6k5ORZ-lnbq7YZ1M3-49" edge="1">
          <mxGeometry relative="1" as="geometry">
            <mxPoint x="634" y="541.9999999999998" as="targetPoint" />
          </mxGeometry>
        </mxCell>
        <mxCell id="3PX6k5ORZ-lnbq7YZ1M3-62" value="" style="edgeStyle=orthogonalEdgeStyle;rounded=0;orthogonalLoop=1;jettySize=auto;html=1;" parent="WIyWlLk6GJQsqaUBKTNV-1" source="3PX6k5ORZ-lnbq7YZ1M3-34" target="3PX6k5ORZ-lnbq7YZ1M3-48" edge="1">
          <mxGeometry relative="1" as="geometry" />
        </mxCell>
        <mxCell id="3PX6k5ORZ-lnbq7YZ1M3-34" value="if routes[i][0] == &#39;W&#39;" style="rhombus;whiteSpace=wrap;html=1;" parent="WIyWlLk6GJQsqaUBKTNV-1" vertex="1">
          <mxGeometry x="433" y="514.5" width="160" height="55" as="geometry" />
        </mxCell>
        <mxCell id="3PX6k5ORZ-lnbq7YZ1M3-40" value="" style="endArrow=classic;html=1;rounded=0;entryX=0.5;entryY=0;entryDx=0;entryDy=0;exitX=0;exitY=0.5;exitDx=0;exitDy=0;" parent="WIyWlLk6GJQsqaUBKTNV-1" source="3PX6k5ORZ-lnbq7YZ1M3-29" target="3PX6k5ORZ-lnbq7YZ1M3-31" edge="1">
          <mxGeometry width="50" height="50" relative="1" as="geometry">
            <mxPoint x="270" y="510" as="sourcePoint" />
            <mxPoint x="320" y="460" as="targetPoint" />
          </mxGeometry>
        </mxCell>
        <mxCell id="3PX6k5ORZ-lnbq7YZ1M3-70" value="" style="edgeStyle=orthogonalEdgeStyle;rounded=0;orthogonalLoop=1;jettySize=auto;html=1;" parent="WIyWlLk6GJQsqaUBKTNV-1" source="3PX6k5ORZ-lnbq7YZ1M3-46" target="3PX6k5ORZ-lnbq7YZ1M3-69" edge="1">
          <mxGeometry relative="1" as="geometry" />
        </mxCell>
        <mxCell id="3PX6k5ORZ-lnbq7YZ1M3-46" value="오른쪽으로 이동&lt;br&gt;for(int j = 1; j &amp;lt;= move; j++)" style="rounded=0;whiteSpace=wrap;html=1;" parent="WIyWlLk6GJQsqaUBKTNV-1" vertex="1">
          <mxGeometry x="36" y="600" width="156" height="60" as="geometry" />
        </mxCell>
        <mxCell id="3PX6k5ORZ-lnbq7YZ1M3-74" value="" style="edgeStyle=orthogonalEdgeStyle;rounded=0;orthogonalLoop=1;jettySize=auto;html=1;" parent="WIyWlLk6GJQsqaUBKTNV-1" source="3PX6k5ORZ-lnbq7YZ1M3-47" target="3PX6k5ORZ-lnbq7YZ1M3-73" edge="1">
          <mxGeometry relative="1" as="geometry" />
        </mxCell>
        <mxCell id="3PX6k5ORZ-lnbq7YZ1M3-47" value="아래쪽으로 이동&lt;br&gt;for(int j = 1; j &amp;lt;= move; j++)" style="rounded=0;whiteSpace=wrap;html=1;" parent="WIyWlLk6GJQsqaUBKTNV-1" vertex="1">
          <mxGeometry x="236" y="600" width="156" height="60" as="geometry" />
        </mxCell>
        <mxCell id="3PX6k5ORZ-lnbq7YZ1M3-76" value="" style="edgeStyle=orthogonalEdgeStyle;rounded=0;orthogonalLoop=1;jettySize=auto;html=1;" parent="WIyWlLk6GJQsqaUBKTNV-1" source="3PX6k5ORZ-lnbq7YZ1M3-48" target="3PX6k5ORZ-lnbq7YZ1M3-75" edge="1">
          <mxGeometry relative="1" as="geometry" />
        </mxCell>
        <mxCell id="3PX6k5ORZ-lnbq7YZ1M3-48" value="왼쪽으로 이동&lt;br&gt;for(int j = 1; j &amp;lt;= move; j++)" style="rounded=0;whiteSpace=wrap;html=1;" parent="WIyWlLk6GJQsqaUBKTNV-1" vertex="1">
          <mxGeometry x="435" y="600" width="156" height="60" as="geometry" />
        </mxCell>
        <mxCell id="3PX6k5ORZ-lnbq7YZ1M3-78" style="edgeStyle=orthogonalEdgeStyle;rounded=0;orthogonalLoop=1;jettySize=auto;html=1;" parent="WIyWlLk6GJQsqaUBKTNV-1" source="3PX6k5ORZ-lnbq7YZ1M3-49" target="3PX6k5ORZ-lnbq7YZ1M3-77" edge="1">
          <mxGeometry relative="1" as="geometry" />
        </mxCell>
        <mxCell id="3PX6k5ORZ-lnbq7YZ1M3-49" value="위쪽으로 이동&lt;br&gt;for(int j = 1; j &amp;lt;= move; j++)" style="rounded=0;whiteSpace=wrap;html=1;" parent="WIyWlLk6GJQsqaUBKTNV-1" vertex="1">
          <mxGeometry x="638" y="600" width="156" height="60" as="geometry" />
        </mxCell>
        <mxCell id="3PX6k5ORZ-lnbq7YZ1M3-63" value="True" style="text;html=1;align=center;verticalAlign=middle;resizable=0;points=[];autosize=1;strokeColor=none;fillColor=none;" parent="WIyWlLk6GJQsqaUBKTNV-1" vertex="1">
          <mxGeometry x="65" y="568" width="50" height="30" as="geometry" />
        </mxCell>
        <mxCell id="3PX6k5ORZ-lnbq7YZ1M3-64" value="True" style="text;html=1;align=center;verticalAlign=middle;resizable=0;points=[];autosize=1;strokeColor=none;fillColor=none;" parent="WIyWlLk6GJQsqaUBKTNV-1" vertex="1">
          <mxGeometry x="261" y="568" width="50" height="30" as="geometry" />
        </mxCell>
        <mxCell id="3PX6k5ORZ-lnbq7YZ1M3-65" value="True" style="text;html=1;align=center;verticalAlign=middle;resizable=0;points=[];autosize=1;strokeColor=none;fillColor=none;" parent="WIyWlLk6GJQsqaUBKTNV-1" vertex="1">
          <mxGeometry x="460" y="570" width="50" height="30" as="geometry" />
        </mxCell>
        <mxCell id="3PX6k5ORZ-lnbq7YZ1M3-66" value="False" style="text;html=1;align=center;verticalAlign=middle;resizable=0;points=[];autosize=1;strokeColor=none;fillColor=none;" parent="WIyWlLk6GJQsqaUBKTNV-1" vertex="1">
          <mxGeometry x="192" y="514.5" width="50" height="30" as="geometry" />
        </mxCell>
        <mxCell id="3PX6k5ORZ-lnbq7YZ1M3-67" value="False" style="text;html=1;align=center;verticalAlign=middle;resizable=0;points=[];autosize=1;strokeColor=none;fillColor=none;" parent="WIyWlLk6GJQsqaUBKTNV-1" vertex="1">
          <mxGeometry x="389" y="510" width="50" height="30" as="geometry" />
        </mxCell>
        <mxCell id="3PX6k5ORZ-lnbq7YZ1M3-68" value="False" style="text;html=1;align=center;verticalAlign=middle;resizable=0;points=[];autosize=1;strokeColor=none;fillColor=none;" parent="WIyWlLk6GJQsqaUBKTNV-1" vertex="1">
          <mxGeometry x="670" y="510" width="50" height="30" as="geometry" />
        </mxCell>
        <mxCell id="3PX6k5ORZ-lnbq7YZ1M3-80" value="" style="edgeStyle=orthogonalEdgeStyle;rounded=0;orthogonalLoop=1;jettySize=auto;html=1;" parent="WIyWlLk6GJQsqaUBKTNV-1" source="3PX6k5ORZ-lnbq7YZ1M3-69" target="3PX6k5ORZ-lnbq7YZ1M3-79" edge="1">
          <mxGeometry relative="1" as="geometry" />
        </mxCell>
        <mxCell id="3PX6k5ORZ-lnbq7YZ1M3-69" value="b+j &amp;gt; bMax&lt;br&gt;OR&lt;br&gt;park[a][b+j] == &#39;X&#39;" style="rhombus;whiteSpace=wrap;html=1;rounded=0;" parent="WIyWlLk6GJQsqaUBKTNV-1" vertex="1">
          <mxGeometry x="39" y="680" width="150" height="120" as="geometry" />
        </mxCell>
        <mxCell id="3PX6k5ORZ-lnbq7YZ1M3-95" style="edgeStyle=orthogonalEdgeStyle;rounded=0;orthogonalLoop=1;jettySize=auto;html=1;entryX=0.5;entryY=0;entryDx=0;entryDy=0;" parent="WIyWlLk6GJQsqaUBKTNV-1" source="3PX6k5ORZ-lnbq7YZ1M3-73" target="3PX6k5ORZ-lnbq7YZ1M3-89" edge="1">
          <mxGeometry relative="1" as="geometry" />
        </mxCell>
        <mxCell id="3PX6k5ORZ-lnbq7YZ1M3-73" value="a+j &amp;gt; aMax&lt;br&gt;OR&lt;br&gt;park[a+j][b] == &#39;X&#39;" style="rhombus;whiteSpace=wrap;html=1;rounded=0;" parent="WIyWlLk6GJQsqaUBKTNV-1" vertex="1">
          <mxGeometry x="239" y="680" width="150" height="120" as="geometry" />
        </mxCell>
        <mxCell id="3PX6k5ORZ-lnbq7YZ1M3-96" style="edgeStyle=orthogonalEdgeStyle;rounded=0;orthogonalLoop=1;jettySize=auto;html=1;" parent="WIyWlLk6GJQsqaUBKTNV-1" source="3PX6k5ORZ-lnbq7YZ1M3-75" target="3PX6k5ORZ-lnbq7YZ1M3-91" edge="1">
          <mxGeometry relative="1" as="geometry" />
        </mxCell>
        <mxCell id="3PX6k5ORZ-lnbq7YZ1M3-75" value="b-j &amp;lt; 0&lt;br&gt;OR&lt;br&gt;park[a][b-j] == &#39;X&#39;" style="rhombus;whiteSpace=wrap;html=1;rounded=0;" parent="WIyWlLk6GJQsqaUBKTNV-1" vertex="1">
          <mxGeometry x="439" y="680" width="150" height="120" as="geometry" />
        </mxCell>
        <mxCell id="3PX6k5ORZ-lnbq7YZ1M3-97" style="edgeStyle=orthogonalEdgeStyle;rounded=0;orthogonalLoop=1;jettySize=auto;html=1;" parent="WIyWlLk6GJQsqaUBKTNV-1" source="3PX6k5ORZ-lnbq7YZ1M3-77" target="3PX6k5ORZ-lnbq7YZ1M3-93" edge="1">
          <mxGeometry relative="1" as="geometry" />
        </mxCell>
        <mxCell id="3PX6k5ORZ-lnbq7YZ1M3-77" value="a-j &amp;lt; 0&lt;br&gt;OR&lt;br&gt;park[a-j][b] == &#39;X&#39;" style="rhombus;whiteSpace=wrap;html=1;rounded=0;" parent="WIyWlLk6GJQsqaUBKTNV-1" vertex="1">
          <mxGeometry x="640" y="680" width="150" height="120" as="geometry" />
        </mxCell>
        <mxCell id="ivutm14zPDMdWW5UEp3g-1" value="" style="edgeStyle=orthogonalEdgeStyle;rounded=0;orthogonalLoop=1;jettySize=auto;html=1;" edge="1" parent="WIyWlLk6GJQsqaUBKTNV-1" source="3PX6k5ORZ-lnbq7YZ1M3-79" target="ivutm14zPDMdWW5UEp3g-0">
          <mxGeometry relative="1" as="geometry" />
        </mxCell>
        <mxCell id="3PX6k5ORZ-lnbq7YZ1M3-79" value="alloc = false&lt;br&gt;break;" style="whiteSpace=wrap;html=1;rounded=0;" parent="WIyWlLk6GJQsqaUBKTNV-1" vertex="1">
          <mxGeometry x="66" y="830" width="96" height="40" as="geometry" />
        </mxCell>
        <mxCell id="3PX6k5ORZ-lnbq7YZ1M3-84" value="True" style="text;html=1;align=center;verticalAlign=middle;resizable=0;points=[];autosize=1;strokeColor=none;fillColor=none;" parent="WIyWlLk6GJQsqaUBKTNV-1" vertex="1">
          <mxGeometry x="70" y="800" width="50" height="30" as="geometry" />
        </mxCell>
        <mxCell id="ivutm14zPDMdWW5UEp3g-3" value="" style="edgeStyle=orthogonalEdgeStyle;rounded=0;orthogonalLoop=1;jettySize=auto;html=1;" edge="1" parent="WIyWlLk6GJQsqaUBKTNV-1" source="3PX6k5ORZ-lnbq7YZ1M3-89" target="ivutm14zPDMdWW5UEp3g-2">
          <mxGeometry relative="1" as="geometry" />
        </mxCell>
        <mxCell id="3PX6k5ORZ-lnbq7YZ1M3-89" value="alloc = false&lt;br&gt;break;" style="whiteSpace=wrap;html=1;rounded=0;" parent="WIyWlLk6GJQsqaUBKTNV-1" vertex="1">
          <mxGeometry x="266" y="830" width="96" height="40" as="geometry" />
        </mxCell>
        <mxCell id="3PX6k5ORZ-lnbq7YZ1M3-90" value="True" style="text;html=1;align=center;verticalAlign=middle;resizable=0;points=[];autosize=1;strokeColor=none;fillColor=none;" parent="WIyWlLk6GJQsqaUBKTNV-1" vertex="1">
          <mxGeometry x="270" y="800" width="50" height="30" as="geometry" />
        </mxCell>
        <mxCell id="ivutm14zPDMdWW5UEp3g-5" value="" style="edgeStyle=orthogonalEdgeStyle;rounded=0;orthogonalLoop=1;jettySize=auto;html=1;" edge="1" parent="WIyWlLk6GJQsqaUBKTNV-1" source="3PX6k5ORZ-lnbq7YZ1M3-91" target="ivutm14zPDMdWW5UEp3g-4">
          <mxGeometry relative="1" as="geometry" />
        </mxCell>
        <mxCell id="3PX6k5ORZ-lnbq7YZ1M3-91" value="alloc = false&lt;br&gt;break;" style="whiteSpace=wrap;html=1;rounded=0;" parent="WIyWlLk6GJQsqaUBKTNV-1" vertex="1">
          <mxGeometry x="465" y="830" width="96" height="40" as="geometry" />
        </mxCell>
        <mxCell id="3PX6k5ORZ-lnbq7YZ1M3-92" value="True" style="text;html=1;align=center;verticalAlign=middle;resizable=0;points=[];autosize=1;strokeColor=none;fillColor=none;" parent="WIyWlLk6GJQsqaUBKTNV-1" vertex="1">
          <mxGeometry x="469" y="800" width="50" height="30" as="geometry" />
        </mxCell>
        <mxCell id="ivutm14zPDMdWW5UEp3g-7" value="" style="edgeStyle=orthogonalEdgeStyle;rounded=0;orthogonalLoop=1;jettySize=auto;html=1;" edge="1" parent="WIyWlLk6GJQsqaUBKTNV-1" source="3PX6k5ORZ-lnbq7YZ1M3-93" target="ivutm14zPDMdWW5UEp3g-6">
          <mxGeometry relative="1" as="geometry" />
        </mxCell>
        <mxCell id="3PX6k5ORZ-lnbq7YZ1M3-93" value="alloc = false&lt;br&gt;break;" style="whiteSpace=wrap;html=1;rounded=0;" parent="WIyWlLk6GJQsqaUBKTNV-1" vertex="1">
          <mxGeometry x="667" y="830" width="96" height="40" as="geometry" />
        </mxCell>
        <mxCell id="3PX6k5ORZ-lnbq7YZ1M3-94" value="True" style="text;html=1;align=center;verticalAlign=middle;resizable=0;points=[];autosize=1;strokeColor=none;fillColor=none;" parent="WIyWlLk6GJQsqaUBKTNV-1" vertex="1">
          <mxGeometry x="671" y="800" width="50" height="30" as="geometry" />
        </mxCell>
        <mxCell id="ivutm14zPDMdWW5UEp3g-0" value="if alloc == true&lt;br&gt;b += move" style="rhombus;whiteSpace=wrap;html=1;rounded=0;" vertex="1" parent="WIyWlLk6GJQsqaUBKTNV-1">
          <mxGeometry x="49" y="894" width="130" height="60" as="geometry" />
        </mxCell>
        <mxCell id="ivutm14zPDMdWW5UEp3g-2" value="if alloc == true&lt;br style=&quot;border-color: var(--border-color);&quot;&gt;a += move" style="rhombus;whiteSpace=wrap;html=1;rounded=0;" vertex="1" parent="WIyWlLk6GJQsqaUBKTNV-1">
          <mxGeometry x="249" y="894" width="130" height="60" as="geometry" />
        </mxCell>
        <mxCell id="ivutm14zPDMdWW5UEp3g-4" value="if alloc == true&lt;br style=&quot;border-color: var(--border-color);&quot;&gt;b -= move" style="rhombus;whiteSpace=wrap;html=1;rounded=0;" vertex="1" parent="WIyWlLk6GJQsqaUBKTNV-1">
          <mxGeometry x="448" y="894" width="130" height="60" as="geometry" />
        </mxCell>
        <mxCell id="ivutm14zPDMdWW5UEp3g-6" value="if alloc == true&lt;br style=&quot;border-color: var(--border-color);&quot;&gt;a -= move" style="rhombus;whiteSpace=wrap;html=1;rounded=0;" vertex="1" parent="WIyWlLk6GJQsqaUBKTNV-1">
          <mxGeometry x="650" y="894" width="130" height="60" as="geometry" />
        </mxCell>
        <mxCell id="ivutm14zPDMdWW5UEp3g-15" value="" style="edgeStyle=orthogonalEdgeStyle;rounded=0;orthogonalLoop=1;jettySize=auto;html=1;" edge="1" parent="WIyWlLk6GJQsqaUBKTNV-1" source="ivutm14zPDMdWW5UEp3g-8" target="ivutm14zPDMdWW5UEp3g-14">
          <mxGeometry relative="1" as="geometry" />
        </mxCell>
        <mxCell id="ivutm14zPDMdWW5UEp3g-8" value="answer.push_back(a)&lt;br&gt;answer.push_back(b)" style="whiteSpace=wrap;html=1;rounded=0;" vertex="1" parent="WIyWlLk6GJQsqaUBKTNV-1">
          <mxGeometry x="350" y="989" width="140" height="60" as="geometry" />
        </mxCell>
        <mxCell id="ivutm14zPDMdWW5UEp3g-10" value="" style="endArrow=classic;html=1;rounded=0;entryX=0.5;entryY=0;entryDx=0;entryDy=0;exitX=0.5;exitY=1;exitDx=0;exitDy=0;" edge="1" parent="WIyWlLk6GJQsqaUBKTNV-1" source="ivutm14zPDMdWW5UEp3g-0" target="ivutm14zPDMdWW5UEp3g-8">
          <mxGeometry width="50" height="50" relative="1" as="geometry">
            <mxPoint x="340" y="880" as="sourcePoint" />
            <mxPoint x="390" y="830" as="targetPoint" />
          </mxGeometry>
        </mxCell>
        <mxCell id="ivutm14zPDMdWW5UEp3g-11" value="" style="endArrow=classic;html=1;rounded=0;entryX=0.5;entryY=0;entryDx=0;entryDy=0;exitX=0.5;exitY=1;exitDx=0;exitDy=0;" edge="1" parent="WIyWlLk6GJQsqaUBKTNV-1" source="ivutm14zPDMdWW5UEp3g-2" target="ivutm14zPDMdWW5UEp3g-8">
          <mxGeometry width="50" height="50" relative="1" as="geometry">
            <mxPoint x="340" y="880" as="sourcePoint" />
            <mxPoint x="390" y="830" as="targetPoint" />
          </mxGeometry>
        </mxCell>
        <mxCell id="ivutm14zPDMdWW5UEp3g-12" value="" style="endArrow=classic;html=1;rounded=0;entryX=0.5;entryY=0;entryDx=0;entryDy=0;exitX=0.5;exitY=1;exitDx=0;exitDy=0;" edge="1" parent="WIyWlLk6GJQsqaUBKTNV-1" source="ivutm14zPDMdWW5UEp3g-4" target="ivutm14zPDMdWW5UEp3g-8">
          <mxGeometry width="50" height="50" relative="1" as="geometry">
            <mxPoint x="340" y="880" as="sourcePoint" />
            <mxPoint x="390" y="830" as="targetPoint" />
          </mxGeometry>
        </mxCell>
        <mxCell id="ivutm14zPDMdWW5UEp3g-13" value="" style="endArrow=classic;html=1;rounded=0;entryX=0.5;entryY=0;entryDx=0;entryDy=0;exitX=0.5;exitY=1;exitDx=0;exitDy=0;" edge="1" parent="WIyWlLk6GJQsqaUBKTNV-1" source="ivutm14zPDMdWW5UEp3g-6" target="ivutm14zPDMdWW5UEp3g-8">
          <mxGeometry width="50" height="50" relative="1" as="geometry">
            <mxPoint x="340" y="880" as="sourcePoint" />
            <mxPoint x="390" y="830" as="targetPoint" />
          </mxGeometry>
        </mxCell>
        <mxCell id="ivutm14zPDMdWW5UEp3g-14" value="return answer" style="ellipse;whiteSpace=wrap;html=1;rounded=0;" vertex="1" parent="WIyWlLk6GJQsqaUBKTNV-1">
          <mxGeometry x="340" y="1069" width="160" height="60" as="geometry" />
        </mxCell>
      </root>
    </mxGraphModel>
  </diagram>
</mxfile>
